<?xml version="1.0" encoding="utf-8"?>
<!-- Generator: Adobe Illustrator 26.0.2, SVG Export Plug-In . SVG Version: 6.00 Build 0)  -->
<svg version="1.1" id="Layer_1" xmlns="http://www.w3.org/2000/svg" xmlns:xlink="http://www.w3.org/1999/xlink" x="0px" y="0px"
	 viewBox="0 0 15 50" style="enable-background:new 0 0 15 50;" xml:space="preserve">
<g id="Layer_2_00000139278694694275556950000011139346611830689433_">
	<g>
		<path id="test" d="M15.1,12.97c0,0,0-9.81,0-12.82c0,4.27-4.52,0.56-4.64,7.84c0.06,2.2,3.92,6.33,4.31,8.03
			c0.21,0.6-0.04,2.7-0.04,2.7c-2.98,2.94-0.06,3.49-0.06,8.01s-12.19,6.92-9.21,9.85c0,0,0.08,0.1,0.24,0.24
			c0.09,0.09,3.02,0.9,3.12,0.98c6.07,4.55,6.27,7.92,6.27,12.17c0-3.01,0-12.82,0-12.82h-0.07V12.98L15.1,12.97z M11.83,25.9
			C11.83,25.9,11.82,25.89,11.83,25.9c-0.01-0.01,0-0.01,0-0.01S11.83,25.89,11.83,25.9C11.83,25.89,11.83,25.9,11.83,25.9z"/>
	</g>
</g>
</svg>
