<svg version="1.1" xmlns="http://www.w3.org/2000/svg" xmlns:xlink="http://www.w3.org/1999/xlink" x="0px" y="0px"
	 viewBox="0 0 15 50" style="enable-background:new 0 0 15 50;" xml:space="preserve" id="active-icon">
<g id="Layer_2">
	<g>
		<path id="active" opacity="0" className="svg-active"
          d="M15.1,12.97c0,0,0-9.81,0-12.82c0,4.27-3.63,8.32-9.15,12.92c-0.08,0.07-0.16,0.14-0.23,0.21
			c-0.17,0.16-0.26,0.26-0.26,0.26c-2.98,2.94-4.84,7.01-4.84,11.53c0,4.52,1.86,8.59,4.84,11.52c0,0,0.08,0.1,0.24,0.24
			c0.09,0.09,0.18,0.18,0.28,0.26c6.07,4.55,9.11,8.64,9.11,12.89c0-3.01,0-12.82,0-12.82l-0.07,0V12.98L15.1,12.97z M7.76,27.82
			c-1.51,0-2.74-1.23-2.74-2.74s1.23-2.74,2.74-2.74s2.74,1.23,2.74,2.74S9.27,27.82,7.76,27.82z"/>

    <path id="middle" opacity="0" className="svg-middle" d="M15.25-0.34c0,0-6.5,6.22-6.5,10.4s5.94,9.08,5.94,13.54S7.93,33.79,7.93,40.56s11.56,12.11,11.56,12.11L15.25-0.34z"/>

    <path id="line" className="svg-line" d="M15.1,12.97c0,0,0-9.81,0-12.82c0,4.27,10.82,7.49,5.3,12.09c-0.08,0.07-0.16,0.14-0.23,0.21
			c-0.17,0.16-0.26,0.26-0.26,0.26c-2.98,2.94-4.84,7.01-4.84,11.53s1.86,8.59,4.84,11.52c0,0,0.08,0.1,0.24,0.24
			c0.09,0.09,0.18,0.18,0.28,0.26c6.07,4.55-5.34,9.47-5.34,13.72c0-3.01,0-12.82,0-12.82h-0.07V12.98L15.1,12.97z M7.76,25.14
			c-0.03,0-0.06-0.03-0.06-0.06s0.03-0.06,0.06-0.06s0.06,0.03,0.06,0.06S7.79,25.14,7.76,25.14z"/>

	</g>
</g>
</svg>
