<?xml version="1.0" encoding="utf-8"?>
<!-- Generator: Adobe Illustrator 26.0.2, SVG Export Plug-In . SVG Version: 6.00 Build 0)  -->
<svg version="1.1" id="Layer_1" xmlns="http://www.w3.org/2000/svg" xmlns:xlink="http://www.w3.org/1999/xlink" x="0px" y="0px"
	 viewBox="0 0 15 50" style="enable-background:new 0 0 15 50;" xml:space="preserve">
<g id="Layer_2_00000139278694694275556950000011139346611830689433_">
	<g>
		<path id="test" d="M15.1,12.97c0,0,0-9.81,0-12.82c0,4.27-0.2,3.71-0.33,11c-0.08,0.07,0.07,4.8,0,4.87
			c-0.17,0.16-0.04,2.7-0.04,2.7c-2.98,2.94-0.06,3.49-0.06,8.01s-0.37,7.47-0.01,9.61c0,0,0.04,1.73-0.06,2.85
			c0.09,0.09-0.15,1.47-0.25,3.06c0.25,3.06,0.74,3.48,0.74,7.73c0-3.01,0-12.82,0-12.82h-0.07V12.98L15.1,12.97z M7.76,27.82
			c-1.51,0-2.74-1.23-2.74-2.74s1.23-2.74,2.74-2.74s2.74,1.23,2.74,2.74S9.27,27.82,7.76,27.82z"/>
	</g>
</g>
</svg>
